<?xml version="1.0" standalone="no"?><!DOCTYPE svg PUBLIC "-//W3C//DTD SVG 1.1//EN" "http://www.w3.org/Graphics/SVG/1.1/DTD/svg11.dtd"><svg t="1644108252712" class="icon" viewBox="0 0 1024 1024" version="1.1" xmlns="http://www.w3.org/2000/svg" p-id="977" xmlns:xlink="http://www.w3.org/1999/xlink" width="200" height="200"><defs><style type="text/css"></style></defs><path d="M486.896246 717.493169a49.230769 49.230769 0 0 1-49.218954-49.230769V297.353846h98.461539v252.707446l14.6432-14.525046c19.133046-18.999138 50.002708-19.050338 69.210584-0.133908l15.537231 15.296985V297.353846h98.461539v370.908554a49.230769 49.230769 0 0 1-83.771077 35.079877l-64.634093-63.637662-64.007877 63.503754a49.2032 49.2032 0 0 1-34.682092 14.2848z" fill="#B0A7F7" p-id="978"></path><path d="M847.816862 236.890585H310.185354c-75.957169 0-89.710277-32.492308-92.171816-45.410462 2.670277-42.413292 18.030277-65.205169 73.503508-65.205169h537.627569c27.1872 0 49.230769-22.043569 49.23077-49.230769s-22.043569-49.230769-49.23077-49.23077H291.517046c-99.138954 0-160.023631 53.673354-170.732308 148.562708a49.085046 49.085046 0 0 0-1.709292 12.673969v645.899816c0 88.902892 72.329846 161.232738 161.236677 161.232738h567.5008c27.1872 0 49.230769-22.043569 49.230769-49.230769V286.121354c0.003938-27.1872-22.039631-49.230769-49.22683-49.230769z m-49.23077 660.834461H280.316062c-34.615138 0-62.775138-28.16-62.775139-62.7712V319.818831c24.182154 9.393231 54.559508 15.533292 92.644431 15.533292h488.400738v562.372923z" fill="#594BC8" p-id="979"></path></svg>